<?xml version="1.0" encoding="UTF-8"?>
<svg xmlns="http://www.w3.org/2000/svg" viewBox="0 0 246 246">
  <g>
    <path d="M144.01 135.11c-31.23-12.86-42.45-12.72-41.91 2.67c.36 10.26 8.48 9.93 8.48 9.93c15.88-3.01 29.89-1.84 29.89-1.84C149.59 141.16 144.01 135.11 144.01 135.11z" fill="#9feaf9"/>
    <g fill="#47848f">
      <path d="M122.87 246c-36.87 0-68.54-13.14-84.16-40.92c-11.96-21.33-12.86-47.62-2.39-74.53c10.45-26.89 29.46-49.21 53.43-62.91c20.79-11.87 43.1-16.55 61.6-12.83c15.23 3.07 27.65 11.21 35.55 23.38c6.4 9.88 13.14 26.89 5.79 43.97c-5.83 13.58-19.23 19.03-34.94 14.25c-13.29-4.03-26.52-17.21-24.02-37.67c.76-6.22 3.08-11.34 6.97-15.3c3.39-3.45 7.59-5.91 12.48-7.31c-2.54-.26-5.15-.39-7.83-.39c-19.56 0-40.75 6.4-58.48 17.64c-20.75 13.17-37.52 33.11-46.81 56.1c-9.32 23.02-8.37 45.45 2.69 63.26c13.73 22.16 40.24 32.97 74.85 30.64c24.06-1.62 48.47-9.91 68.67-23.34c32.44-21.53 51.86-52.77 54.11-87.1c.45-6.78.17-13.44-.79-19.96c-1.44 17.1-6.77 34.23-11.95 44.51c-.02 15.68-4.16 31.56-11.98 45.35c-5.27 9.26-11.31 17.2-17.93 23.62c3.05 1.84 5.25 3.94 6.43 6.4c1.67 3.46 1.2 6.98-.22 10.34c2.34-1.35 4.78-2.91 7.29-4.69c13.8-9.79 25.24-24.33 32.25-40.85c7.42-17.5 10-36.09 7.43-52.76c-2.99-19.48-14.35-35.04-32.91-45.03c-15.43-8.31-35.28-11.95-55.9-10.29c-22.79 1.85-46.03 9.04-65.59 20.4c-38.35 22.32-66.46 63.31-71.25 104.08c-2.73 23.2 3.16 43.67 16.54 57.84C64.91 232.44 93.41 246 126.24 246h.78c38.24-.82 77.2-16.24 104.47-41.34c-2.31 1.25-4.86 2.29-7.65 3.03c-9.28 2.48-24.21 1.98-33.17 1.04C167.93 242.99 144.68 246 122.87 246z"/>
      <path d="M76.28 178.76c-14.31 0-26.16-4.15-33.84-11.95c-12.13-12.3-13.71-33.03-4.19-55.17c9.53-22.16 27.99-40.26 51.83-50.96c22.92-10.3 46.6-12.32 63.44-5.07c0 0-3.78-8.07-27.21-9.61C91.89 43.23 48.07 81.77 34.08 142.33c-5.76 24.89 1.66 58.5 35.77 59.43c6.83.19 13.52-2.77 13.52-2.77C81.73 178.11 79.4 178.76 76.28 178.76z"/>
      <path d="M196.88 154.81c-4.86-9.63-2.15-24.03 4.7-32.11c2.42-2.85 5.69-4.89 9.79-6.1c-23.9-30.7-108.39-31.77-180.73 10.91c-.38 22.22 4.06 43.14 18.92 49.91c10.85 4.95 22.62 1.13 22.62 1.13C53.57 170.56 65.71 137.87 146.4 114.42c15.3-4.46 29.27-6.53 41.17-6.53c21.58 0 37.85 6.88 48.49 18.14C231.78 127.42 206.21 173.43 196.88 154.81z"/>
    </g>
    <path d="M226.16 25.76c-7.32 0-13.2 5.88-13.2 13.2c0 7.32 5.88 13.2 13.2 13.2c7.32 0 13.2-5.88 13.2-13.2C239.37 31.65 233.48 25.76 226.16 25.76zM226.16 47.68c-4.83 0-8.72-3.88-8.72-8.72s3.88-8.72 8.72-8.72c4.83 0 8.72 3.88 8.72 8.72S230.99 47.68 226.16 47.68z" fill="#9feaf9"/>
  </g>
</svg> 